<?xml version="1.0" encoding="UTF-8"?>
<svg width="174px" height="57px" viewBox="0 0 174 57" version="1.1" xmlns="http://www.w3.org/2000/svg" xmlns:xlink="http://www.w3.org/1999/xlink">
    <!-- Generator: Sketch 52.4 (67378) - http://www.bohemiancoding.com/sketch -->
    <title>Group 4</title>
    <desc>Created with Sketch.</desc>
    <g id="Page-1" stroke="none" stroke-width="1" fill="none" fill-rule="evenodd">
        <g id="Desktop-HD-Copy" transform="translate(-635.000000, -203.000000)">
            <g id="Group-4" transform="translate(623.000000, 198.000000)">
                <text id="Light" font-family="AvenirNext-Bold, Avenir Next" font-size="50" font-weight="bold" fill="#FA5A5B">
                    <tspan x="64" y="50">Light</tspan>
                </text>
                <g id="icon">
                    <polygon id="Path" points="0 64 0 0 64 0 64 64"></polygon>
                    <g id="surface1" transform="translate(12.000000, 5.000000)">
                        <polyline id="Path" fill="#FA5A5B" points="18.6708861 53 21.3291139 53 25.3164557 49.025 14.6835443 49.025"></polyline>
                        <path d="M22.6582278,50.35 L17.3417722,50.35 C14.4187595,50.35 12.0253165,47.9639652 12.0253165,45.05 L12.0253165,39.75 L27.9746835,39.75 L27.9746835,45.05 C27.9746835,47.9639652 25.5812405,50.35 22.6582278,50.35 Z" id="Path" fill="#FA5A5B"></path>
                        <path d="M27.9746835,45.05 L12.5548861,47.172072 C12.9546582,48.0985348 13.7542025,49.025 14.6835443,49.5529305 L27.1751392,47.834572 C27.7098987,47.0375 27.9746835,46.1110348 27.9746835,45.05 Z" id="Path" fill="#FFFFFF"></path>
                        <polygon id="Path" fill="#FFFFFF" points="12.0253165 42.0014652 12.0253165 44.6514652 27.9746835 42.4 27.9746835 39.75"></polygon>
                        <path d="M12.0253165,39.75 C8.03797468,37.234572 0.0632911392,29.15 0.0632911392,19.875 C0.0632911392,8.87646524 8.96731646,0 20,0 C31.0326835,0 39.9367089,8.87646524 39.9367089,19.875 C39.9367089,29.15 31.9620253,37.234572 27.9746835,39.75 L12.0253165,39.75 Z" id="Path" fill="#FA5A5B"></path>
                        <path d="M28.7742304,17.4889652 L24.7868886,14.8389652 C24.3871139,14.575 23.722557,14.575 23.3227848,14.8389652 L20,16.9610348 L16.8122051,14.8389652 C16.4124304,14.575 15.7478734,14.575 15.3481013,14.8389652 L11.3607595,17.4889652 C11.0959747,17.7529305 10.8311924,18.022072 10.8311924,18.4154305 C10.8311924,18.8139652 10.8311924,19.2125 11.0959747,19.4764652 L16.1476481,25.7029305 L16.1476481,39.75 L18.8058759,39.75 L18.8058759,25.175 C18.8058759,24.9110348 18.6708861,24.647072 18.5358987,24.3779305 L14.1539772,18.9485348 L16.1476481,17.6235348 L19.335443,19.7404305 C19.7352152,20.009572 20.3997722,20.009572 20.7995468,19.7404305 L23.9873418,17.6235348 L25.9810127,18.9485348 L21.5938987,24.3779305 C21.4641038,24.647072 21.3291139,24.9110348 21.3291139,25.175 L21.3291139,39.75 L23.9873418,39.75 L23.9873418,25.7029305 L29.0390127,19.4764652 C29.3037975,19.2125 29.4387873,18.8139652 29.3037975,18.4154305 C29.1688101,18.022072 29.0390127,17.6235348 28.7742304,17.4889652 Z" id="Path" fill="#FFFFFF"></path>
                    </g>
                </g>
            </g>
        </g>
    </g>
</svg>